<svg xmlns="http://www.w3.org/2000/svg" xmlns:xlink="http://www.w3.org/1999/xlink" width="500" zoomAndPan="magnify" viewBox="0 0 375 374.999991" height="500" preserveAspectRatio="xMidYMid meet" version="1.0"><path fill="#ed5806" d="M 204.871094 88.953125 C 195.273438 69.996094 180.867188 56.972656 164.304688 52.28125 C 131.789062 43.074219 114.136719 28.261719 101.246094 17.445312 C 88.308594 6.585938 80.5 0.0351562 68.023438 9.078125 C 50.5625 21.738281 50.46875 38.960938 50.375 57.195312 C 50.277344 75.492188 50.175781 94.414062 33.195312 111.394531 C 20.074219 124.515625 11.347656 136.941406 7.261719 148.324219 C 3.652344 158.382812 3.914062 167.15625 8.023438 173.703125 C 14.832031 184.558594 31.054688 187.449219 49.347656 181.078125 C 69.054688 174.207031 81.863281 178.792969 98.078125 184.597656 C 112.472656 189.746094 129.953125 196.003906 157.574219 196.003906 C 161.398438 196.003906 165.425781 195.882812 169.660156 195.621094 C 183.242188 194.789062 194.234375 189.5 202.335938 179.902344 C 209.535156 171.375 214.121094 159.628906 215.597656 145.925781 C 217.617188 127.179688 213.707031 106.414062 204.871094 88.953125 Z M 214.761719 145.835938 C 211.625 174.941406 194.746094 193.238281 169.609375 194.78125 C 134.992188 196.90625 114.679688 189.640625 98.363281 183.804688 C 87.84375 180.039062 78.746094 176.78125 68.28125 176.78125 C 62.460938 176.78125 56.214844 177.792969 49.070312 180.28125 C 31.160156 186.523438 15.328125 183.765625 8.734375 173.253906 C -0.0078125 159.324219 9.359375 136.417969 33.789062 111.988281 C 51.015625 94.765625 51.117188 75.667969 51.214844 57.199219 C 51.3125 39.183594 51.402344 22.171875 68.519531 9.761719 C 80.460938 1.101562 87.648438 7.136719 100.703125 18.089844 C 113.652344 28.953125 131.382812 43.835938 164.074219 53.09375 C 180.410156 57.71875 194.628906 70.589844 204.117188 89.335938 C 212.882812 106.652344 216.761719 127.246094 214.761719 145.835938 Z M 161.421875 54.839844 C 130.652344 46.125 113.949219 32.109375 101.75 21.871094 C 89.5 11.589844 82.105469 5.382812 70.285156 13.953125 C 53.746094 25.941406 53.660156 42.246094 53.570312 59.511719 C 53.476562 76.824219 53.382812 94.726562 37.320312 110.789062 C 13.90625 134.199219 5 156.257812 13.488281 169.789062 C 19.941406 180.070312 35.304688 182.8125 52.628906 176.777344 C 71.269531 170.28125 83.390625 174.617188 98.734375 180.105469 C 112.359375 184.980469 128.90625 190.90625 155.046875 190.902344 C 158.667969 190.902344 162.480469 190.789062 166.488281 190.542969 C 179.347656 189.753906 189.757812 184.746094 197.429688 175.660156 C 204.246094 167.585938 208.585938 156.460938 209.984375 143.492188 C 211.898438 125.742188 208.195312 106.085938 199.828125 89.558594 C 190.746094 71.613281 177.105469 59.28125 161.421875 54.839844 Z M 209.148438 143.402344 C 206.179688 170.933594 190.214844 188.242188 166.4375 189.703125 C 133.675781 191.714844 114.457031 184.839844 99.019531 179.3125 C 89.058594 175.75 80.445312 172.667969 70.539062 172.667969 C 65.027344 172.667969 59.117188 173.621094 52.351562 175.980469 C 35.410156 181.882812 20.4375 179.277344 14.203125 169.339844 C 5.9375 156.164062 14.800781 134.5 37.914062 111.382812 C 54.222656 95.074219 54.316406 76.996094 54.410156 59.515625 C 54.5 42.472656 54.585938 26.375 70.777344 14.636719 C 82.066406 6.453125 88.867188 12.160156 101.210938 22.515625 C 113.464844 32.800781 130.25 46.886719 161.195312 55.648438 C 176.648438 60.027344 190.101562 72.203125 199.078125 89.9375 C 207.371094 106.324219 211.042969 125.8125 209.148438 143.402344 Z M 158.542969 57.398438 C 129.519531 49.179688 113.761719 35.953125 102.257812 26.300781 C 90.691406 16.59375 83.707031 10.734375 72.542969 18.828125 C 56.933594 30.144531 56.851562 45.535156 56.765625 61.824219 C 56.675781 78.152344 56.585938 95.039062 41.441406 110.183594 C 19.347656 132.277344 10.941406 153.097656 18.957031 165.875 C 25.050781 175.582031 39.550781 178.175781 55.90625 172.476562 C 73.488281 166.347656 84.917969 170.4375 99.386719 175.617188 C 112.242188 180.21875 127.859375 185.804688 152.519531 185.804688 C 155.9375 185.804688 159.53125 185.699219 163.316406 185.464844 C 175.453125 184.71875 185.28125 179.992188 192.523438 171.414062 C 198.957031 163.792969 203.054688 153.296875 204.371094 141.054688 C 206.175781 124.308594 202.683594 105.757812 194.789062 90.164062 C 186.214844 73.226562 173.34375 61.589844 158.542969 57.398438 Z M 203.535156 140.964844 C 200.695312 167.3125 186.019531 183.226562 163.265625 184.625 C 132.359375 186.523438 114.234375 180.035156 99.671875 174.824219 C 90.273438 171.460938 82.144531 168.550781 72.800781 168.550781 C 67.597656 168.550781 62.015625 169.453125 55.628906 171.679688 C 39.660156 177.246094 25.546875 174.789062 19.671875 165.425781 C 11.878906 153.003906 20.238281 132.578125 42.035156 110.78125 C 57.425781 95.386719 57.519531 78.328125 57.605469 61.828125 C 57.691406 45.757812 57.773438 30.578125 73.035156 19.511719 C 83.667969 11.800781 90.082031 17.179688 101.714844 26.945312 C 113.28125 36.648438 129.117188 49.9375 158.3125 58.207031 C 172.886719 62.332031 185.574219 73.816406 194.039062 90.542969 C 201.859375 105.996094 205.320312 124.375 203.535156 140.964844 Z M 155.660156 59.953125 C 128.386719 52.230469 113.578125 39.800781 102.765625 30.726562 C 91.882812 21.597656 85.3125 16.082031 74.800781 23.703125 C 60.117188 34.351562 60.039062 48.820312 59.960938 64.140625 C 59.878906 79.484375 59.792969 95.347656 45.5625 109.578125 C 24.785156 130.355469 16.882812 149.9375 24.425781 161.957031 C 30.160156 171.09375 43.804688 173.535156 59.1875 168.171875 C 75.703125 162.417969 86.445312 166.261719 100.042969 171.128906 C 112.128906 175.453125 126.808594 180.703125 149.992188 180.703125 C 153.207031 180.703125 156.585938 180.605469 160.144531 180.386719 C 171.558594 179.683594 180.800781 175.238281 187.613281 167.167969 C 193.664062 160.003906 197.519531 150.128906 198.757812 138.617188 C 200.457031 122.871094 197.171875 105.429688 189.75 90.765625 C 181.6875 74.839844 169.582031 63.898438 155.660156 59.953125 Z M 197.921875 138.527344 C 195.253906 163.28125 181.464844 178.234375 160.09375 179.546875 C 131.046875 181.328125 114.011719 175.234375 100.324219 170.335938 C 91.488281 167.171875 83.847656 164.4375 75.058594 164.4375 C 70.164062 164.4375 64.917969 165.285156 58.910156 167.378906 C 43.910156 172.605469 30.65625 170.300781 25.140625 161.511719 C 17.820312 149.847656 25.679688 130.65625 46.15625 110.175781 C 60.632812 95.699219 60.71875 79.65625 60.800781 64.144531 C 60.882812 49.042969 60.957031 34.78125 75.292969 24.386719 C 85.273438 17.152344 91.292969 22.203125 102.222656 31.375 C 113.09375 40.496094 127.984375 52.992188 155.433594 60.765625 C 184.960938 69.125 201.242188 107.726562 197.921875 138.527344 Z M 152.78125 62.511719 C 127.253906 55.28125 113.390625 43.648438 103.269531 35.15625 C 93.074219 26.597656 86.917969 21.433594 77.058594 28.578125 C 63.300781 38.554688 63.230469 52.105469 63.15625 66.457031 C 63.078125 80.8125 63 95.660156 49.683594 108.976562 C 30.226562 128.4375 22.828125 146.777344 29.894531 158.042969 C 35.265625 166.609375 48.054688 168.898438 62.46875 163.871094 C 77.917969 158.488281 87.972656 162.085938 100.695312 166.636719 C 112.011719 170.6875 125.757812 175.605469 147.46875 175.605469 C 150.476562 175.605469 153.640625 175.511719 156.972656 175.308594 C 167.667969 174.648438 176.324219 170.484375 182.707031 162.925781 C 188.375 156.210938 191.984375 146.964844 193.148438 136.183594 C 194.734375 121.4375 191.660156 105.101562 184.710938 91.371094 C 177.160156 76.453125 165.820312 66.203125 152.78125 62.511719 Z M 192.308594 136.09375 C 189.8125 159.25 176.914062 173.238281 156.921875 174.464844 C 129.738281 176.136719 113.792969 170.429688 100.980469 165.84375 C 92.703125 162.882812 85.546875 160.324219 77.316406 160.324219 C 72.734375 160.324219 67.816406 161.117188 62.191406 163.078125 C 48.160156 167.96875 35.765625 165.816406 30.605469 157.597656 C 23.761719 146.6875 31.117188 128.734375 50.28125 109.570312 C 63.839844 96.011719 63.917969 80.988281 63.996094 66.460938 C 64.070312 52.332031 64.140625 38.984375 77.554688 29.261719 C 86.878906 22.5 92.511719 27.226562 102.730469 35.800781 C 112.910156 44.34375 126.851562 56.042969 152.550781 63.320312 C 180.179688 71.144531 195.414062 107.265625 192.308594 136.09375 Z M 149.902344 65.070312 C 126.117188 58.332031 113.207031 47.496094 103.777344 39.585938 C 94.261719 31.601562 88.519531 26.785156 79.316406 33.457031 C 66.488281 42.757812 66.421875 55.394531 66.347656 68.769531 C 66.277344 82.144531 66.203125 95.972656 53.804688 108.371094 C 35.664062 126.515625 28.769531 143.621094 35.359375 154.125 C 40.375 162.121094 52.304688 164.257812 65.75 159.570312 C 80.136719 154.558594 89.496094 157.90625 101.347656 162.148438 C 111.894531 165.921875 124.707031 170.507812 144.941406 170.507812 C 147.746094 170.507812 150.695312 170.417969 153.800781 170.226562 C 163.773438 169.617188 171.847656 165.730469 177.800781 158.679688 C 183.085938 152.421875 186.449219 143.796875 187.535156 133.746094 C 189.015625 120 186.148438 104.773438 179.667969 91.972656 C 172.628906 78.066406 162.058594 68.511719 149.902344 65.070312 Z M 186.695312 133.65625 C 184.375 155.21875 172.363281 168.246094 153.746094 169.386719 C 128.421875 170.941406 113.570312 165.628906 101.632812 161.355469 C 93.921875 158.597656 87.25 156.210938 79.574219 156.210938 C 75.300781 156.210938 70.71875 156.949219 65.472656 158.777344 C 52.410156 163.328125 40.875 161.328125 36.074219 153.679688 C 29.703125 143.527344 36.554688 126.8125 54.402344 108.96875 C 67.042969 96.324219 67.121094 82.320312 67.191406 68.777344 C 67.261719 55.617188 67.328125 43.1875 79.8125 34.136719 C 88.484375 27.851562 93.722656 32.246094 103.238281 40.230469 C 112.722656 48.191406 125.714844 59.09375 149.671875 65.878906 C 175.402344 73.164062 189.589844 106.808594 186.695312 133.65625 Z M 147.019531 67.625 C 124.984375 61.386719 113.019531 51.34375 104.285156 44.011719 C 95.457031 36.605469 90.125 32.132812 81.578125 38.332031 C 69.671875 46.960938 69.609375 58.679688 69.542969 71.085938 C 69.480469 83.476562 69.410156 96.285156 57.929688 107.765625 C 41.101562 124.59375 34.710938 140.460938 40.828125 150.214844 C 45.484375 157.632812 56.550781 159.617188 69.027344 155.273438 C 82.355469 150.628906 91.023438 153.730469 102.003906 157.660156 C 111.78125 161.15625 123.65625 165.40625 142.414062 165.40625 C 145.015625 165.40625 147.75 165.324219 150.625 165.148438 C 159.878906 164.582031 167.371094 160.976562 172.890625 154.4375 C 177.792969 148.628906 180.917969 140.632812 181.921875 131.308594 C 183.292969 118.5625 180.636719 104.445312 174.628906 92.578125 C 168.101562 79.679688 158.296875 70.820312 147.019531 67.625 Z M 181.082031 131.21875 C 178.933594 151.1875 167.8125 163.25 150.574219 164.308594 C 127.113281 165.746094 113.347656 160.824219 102.289062 156.867188 C 95.136719 154.308594 88.949219 152.09375 81.832031 152.09375 C 77.871094 152.09375 73.617188 152.78125 68.75 154.476562 C 56.664062 158.6875 45.980469 156.839844 41.542969 149.765625 C 35.648438 140.367188 41.996094 124.890625 58.523438 108.363281 C 70.25 96.636719 70.320312 83.648438 70.386719 71.089844 C 70.453125 58.90625 70.511719 47.394531 82.070312 39.011719 C 90.089844 33.199219 94.9375 37.269531 103.742188 44.660156 C 112.539062 52.039062 124.582031 62.148438 146.789062 68.4375 C 170.621094 75.183594 183.761719 106.347656 181.082031 131.21875 Z M 144.140625 70.183594 C 123.851562 64.4375 112.835938 55.191406 104.789062 48.441406 C 96.644531 41.605469 91.730469 37.484375 83.835938 43.207031 C 72.859375 51.164062 72.800781 61.964844 72.738281 73.402344 C 72.679688 84.804688 72.617188 96.597656 62.050781 107.164062 C 46.542969 122.671875 40.652344 137.300781 46.296875 146.296875 C 50.59375 153.144531 60.804688 154.980469 72.308594 150.96875 C 84.570312 146.695312 92.554688 149.554688 102.660156 153.167969 C 111.664062 156.390625 122.605469 160.308594 139.886719 160.308594 C 142.285156 160.308594 144.804688 160.234375 147.453125 160.070312 C 155.984375 159.546875 162.894531 156.222656 167.984375 150.191406 C 172.503906 144.835938 175.382812 137.464844 176.308594 128.871094 C 177.574219 117.128906 175.125 104.117188 169.589844 93.179688 C 163.570312 81.292969 154.535156 73.125 144.140625 70.183594 Z M 175.472656 128.78125 C 173.492188 147.15625 163.261719 158.253906 147.402344 159.230469 C 125.796875 160.554688 113.125 156.019531 102.941406 152.375 C 96.351562 150.019531 90.648438 147.976562 84.089844 147.976562 C 80.4375 147.976562 76.519531 148.613281 72.03125 150.175781 C 60.910156 154.050781 51.089844 152.351562 47.011719 145.847656 C 41.589844 137.210938 47.433594 122.96875 62.648438 107.757812 C 73.457031 96.949219 73.519531 84.980469 73.582031 73.40625 C 73.640625 62.191406 73.699219 51.597656 84.332031 43.886719 C 91.695312 38.550781 96.152344 42.292969 104.25 49.085938 C 112.351562 55.886719 123.449219 65.199219 143.910156 70.992188 C 165.84375 77.203125 177.9375 105.890625 175.472656 128.78125 Z M 141.257812 72.738281 C 122.71875 67.488281 112.648438 59.039062 105.296875 52.867188 C 97.839844 46.609375 93.335938 42.832031 86.09375 48.082031 C 76.042969 55.371094 75.992188 65.253906 75.933594 75.71875 C 75.878906 86.136719 75.824219 96.910156 66.171875 106.558594 C 51.980469 120.75 46.59375 134.144531 51.765625 142.382812 C 55.703125 148.660156 65.054688 150.339844 75.589844 146.671875 C 86.789062 142.769531 94.078125 145.375 103.3125 148.679688 C 111.550781 151.628906 121.554688 155.207031 137.359375 155.207031 C 139.554688 155.207031 141.855469 155.140625 144.28125 154.992188 C 152.089844 154.511719 158.414062 151.46875 163.078125 145.945312 C 167.214844 141.046875 169.847656 134.300781 170.695312 126.4375 C 172.984375 105.179688 161.703125 78.53125 141.257812 72.738281 Z M 169.859375 126.34375 C 168.050781 143.125 158.710938 153.261719 144.230469 154.148438 C 124.488281 155.363281 112.902344 151.21875 103.597656 147.886719 C 97.566406 145.730469 92.351562 143.863281 86.351562 143.863281 C 83.007812 143.863281 79.417969 144.441406 75.3125 145.875 C 65.164062 149.410156 56.199219 147.863281 52.480469 141.933594 C 47.53125 134.050781 52.875 121.046875 66.769531 107.152344 C 76.664062 97.257812 76.722656 86.308594 76.777344 75.722656 C 76.832031 65.476562 76.882812 55.800781 86.589844 48.761719 C 93.296875 43.898438 97.367188 47.3125 104.757812 53.515625 C 112.167969 59.730469 122.316406 68.25 141.03125 73.546875 C 161.066406 79.222656 172.113281 105.429688 169.859375 126.34375 Z M 138.378906 75.296875 C 121.585938 70.539062 112.464844 62.886719 105.804688 57.296875 C 99.03125 51.613281 94.941406 48.183594 88.351562 52.957031 C 79.226562 59.574219 79.179688 68.539062 79.128906 78.035156 C 79.078125 87.464844 79.027344 97.222656 70.296875 105.953125 C 57.421875 118.828125 52.535156 130.984375 57.234375 138.46875 C 60.8125 144.171875 69.304688 145.703125 78.867188 142.367188 C 89.003906 138.835938 95.605469 141.199219 103.964844 144.191406 C 111.433594 146.863281 120.503906 150.109375 134.835938 150.109375 C 136.820312 150.109375 138.910156 150.046875 141.109375 149.910156 C 148.199219 149.476562 153.9375 146.714844 158.167969 141.699219 C 161.921875 137.253906 164.3125 131.132812 165.082031 124 C 167.160156 104.71875 156.925781 80.550781 138.378906 75.296875 Z M 164.246094 123.910156 C 162.609375 139.09375 154.15625 148.265625 141.058594 149.070312 C 123.175781 150.167969 112.679688 146.414062 104.25 143.398438 C 98.78125 141.441406 94.050781 139.75 88.609375 139.75 C 85.574219 139.75 82.320312 140.273438 78.59375 141.574219 C 69.410156 144.773438 61.308594 143.378906 57.945312 138.019531 C 53.472656 130.890625 58.3125 119.128906 70.890625 106.550781 C 79.867188 97.574219 79.921875 87.640625 79.972656 78.039062 C 80.023438 68.765625 80.066406 60.003906 88.847656 53.640625 C 94.902344 49.25 98.582031 52.339844 105.261719 57.945312 C 111.980469 63.582031 121.179688 71.300781 138.148438 76.109375 C 156.285156 81.242188 166.285156 104.972656 164.246094 123.910156 Z M 135.496094 77.851562 C 120.449219 73.59375 112.277344 66.734375 106.308594 61.726562 C 100.222656 56.617188 96.546875 53.53125 90.613281 57.832031 C 82.414062 63.777344 82.371094 71.828125 82.324219 80.347656 C 82.28125 88.796875 82.234375 97.53125 74.417969 105.347656 C 62.859375 116.90625 58.480469 127.824219 62.699219 134.550781 C 65.921875 139.683594 73.554688 141.0625 82.148438 138.066406 C 91.222656 134.90625 97.132812 137.023438 104.621094 139.699219 C 111.320312 142.097656 119.453125 145.007812 132.308594 145.007812 C 134.089844 145.007812 135.964844 144.953125 137.9375 144.832031 C 149.929688 144.09375 157.980469 135.398438 159.472656 121.5625 C 161.335938 104.261719 152.148438 82.570312 135.496094 77.851562 Z M 158.632812 121.472656 C 157.167969 135.0625 149.605469 143.273438 137.886719 143.992188 C 121.859375 144.976562 112.457031 141.609375 104.902344 138.90625 C 99.996094 137.152344 95.753906 135.632812 90.867188 135.632812 C 88.144531 135.632812 85.21875 136.105469 81.871094 137.273438 C 73.660156 140.132812 66.417969 138.890625 63.414062 134.105469 C 59.417969 127.734375 63.753906 117.207031 75.011719 105.945312 C 83.074219 97.882812 83.121094 88.972656 83.167969 80.351562 C 83.210938 72.050781 83.253906 64.207031 91.105469 58.515625 C 96.507812 54.601562 99.796875 57.359375 105.769531 62.371094 C 111.792969 67.425781 120.046875 74.351562 135.269531 78.664062 C 151.507812 83.261719 160.460938 104.511719 158.632812 121.472656 Z M 132.617188 80.410156 C 119.316406 76.644531 112.09375 70.582031 106.816406 66.152344 C 101.414062 61.617188 98.148438 58.878906 92.871094 62.707031 C 85.597656 67.980469 85.5625 75.113281 85.519531 82.664062 C 85.480469 90.128906 85.441406 97.84375 78.539062 104.746094 C 68.300781 114.984375 64.421875 124.664062 68.167969 130.636719 C 71.027344 135.195312 77.804688 136.425781 85.429688 133.765625 C 93.4375 130.976562 98.660156 132.84375 105.273438 135.210938 C 111.203125 137.332031 118.402344 139.910156 129.78125 139.910156 C 131.359375 139.910156 133.019531 139.859375 134.765625 139.753906 C 145.398438 139.101562 152.535156 131.390625 153.855469 119.125 C 155.507812 103.800781 147.367188 84.589844 132.617188 80.410156 Z M 153.019531 119.035156 C 151.726562 131.035156 145.054688 138.277344 134.714844 138.914062 C 120.550781 139.78125 112.234375 136.808594 105.558594 134.417969 C 101.210938 132.863281 97.453125 131.519531 93.125 131.519531 C 90.710938 131.519531 88.121094 131.9375 85.152344 132.972656 C 77.914062 135.496094 71.527344 134.402344 68.882812 130.1875 C 65.359375 124.574219 69.191406 115.285156 79.136719 105.339844 C 86.28125 98.195312 86.324219 90.300781 86.363281 82.667969 C 86.402344 75.335938 86.4375 68.410156 93.367188 63.390625 C 98.113281 59.949219 101.011719 62.382812 106.277344 66.800781 C 111.609375 71.273438 118.914062 77.40625 132.386719 81.21875 C 146.730469 85.28125 154.632812 104.054688 153.019531 119.035156 Z M 129.734375 82.96875 C 118.183594 79.695312 111.90625 74.429688 107.324219 70.582031 C 102.765625 66.757812 99.753906 64.230469 95.128906 67.582031 C 88.785156 72.183594 88.75 78.398438 88.714844 84.980469 C 88.679688 91.457031 88.644531 98.15625 82.664062 104.140625 C 73.738281 113.066406 70.363281 121.507812 73.636719 126.722656 C 76.136719 130.707031 82.054688 131.785156 88.710938 129.464844 C 95.65625 127.046875 100.1875 128.667969 105.929688 130.722656 C 111.085938 132.566406 117.351562 134.8125 127.253906 134.8125 C 128.628906 134.8125 130.074219 134.765625 131.59375 134.675781 C 140.867188 134.105469 147.09375 127.382812 148.246094 116.691406 C 149.683594 103.34375 142.589844 86.605469 129.734375 82.96875 Z M 147.40625 116.601562 C 146.289062 127.003906 140.503906 133.285156 131.539062 133.832031 C 119.238281 134.589844 112.015625 132.003906 106.210938 129.929688 C 102.425781 128.574219 99.15625 127.402344 95.382812 127.402344 C 93.28125 127.402344 91.019531 127.769531 88.433594 128.671875 C 82.164062 130.855469 76.632812 129.914062 74.351562 126.273438 C 71.300781 121.414062 74.628906 113.363281 83.257812 104.734375 C 89.484375 98.507812 89.523438 91.632812 89.558594 84.984375 C 89.59375 78.625 89.625 72.617188 95.625 68.265625 C 99.71875 65.300781 102.226562 67.40625 106.78125 71.226562 C 111.421875 75.125 117.78125 80.457031 129.507812 83.777344 C 141.949219 87.300781 148.808594 103.59375 147.40625 116.601562 Z M 126.855469 85.523438 C 117.050781 82.746094 111.71875 78.273438 107.828125 75.011719 C 103.933594 71.742188 101.359375 69.578125 97.386719 72.460938 C 91.96875 76.386719 91.941406 81.6875 91.910156 87.296875 C 91.882812 92.789062 91.851562 98.46875 86.785156 103.535156 C 79.179688 111.144531 76.304688 118.347656 79.105469 122.808594 C 81.246094 126.222656 86.304688 127.148438 91.988281 125.164062 C 97.871094 123.113281 101.714844 124.492188 106.582031 126.234375 C 110.972656 127.804688 116.300781 129.710938 124.730469 129.710938 C 125.898438 129.710938 127.125 129.675781 128.417969 129.59375 C 136.335938 129.109375 141.648438 123.375 142.632812 114.253906 C 143.855469 102.882812 137.808594 88.625 126.855469 85.523438 Z M 141.792969 114.164062 C 140.847656 122.96875 135.953125 128.289062 128.367188 128.753906 C 117.925781 129.398438 111.792969 127.203125 106.867188 125.441406 C 103.644531 124.285156 100.855469 123.289062 97.644531 123.289062 C 95.847656 123.289062 93.921875 123.601562 91.710938 124.371094 C 86.414062 126.21875 81.746094 125.429688 79.816406 122.359375 C 77.242188 118.253906 80.070312 111.441406 87.378906 104.132812 C 92.691406 98.820312 92.726562 92.699219 92.753906 87.300781 C 92.78125 81.910156 92.808594 76.820312 97.882812 73.140625 C 101.320312 70.648438 103.316406 72.320312 107.289062 75.65625 C 111.238281 78.96875 116.648438 83.507812 126.625 86.335938 C 137.171875 89.320312 142.984375 103.136719 141.792969 114.164062 Z M 141.792969 114.164062 " fill-opacity="1" fill-rule="nonzero"/></svg>